<mxfile host="app.diagrams.net" modified="2021-10-19T06:55:23.265Z" agent="5.0 (Windows NT 10.0; Win64; x64) AppleWebKit/537.36 (KHTML, like Gecko) Chrome/94.0.4606.81 Safari/537.36" etag="sU7Q9gWW1xBoz4sWM-VI" version="15.5.5" type="github">
  <diagram id="e5ySj3aZHfBaEBQDJ8qI" name="Page-1">
    <mxGraphModel dx="870" dy="626" grid="1" gridSize="10" guides="1" tooltips="1" connect="1" arrows="1" fold="1" page="1" pageScale="1" pageWidth="850" pageHeight="1100" math="0" shadow="0">
      <root>
        <mxCell id="0" />
        <mxCell id="1" parent="0" />
        <mxCell id="KfeeA3AMSUTKs20e_gZO-1" value="Controller&#xa;" style="swimlane;fontStyle=1;align=center;verticalAlign=top;childLayout=stackLayout;horizontal=1;startSize=26;horizontalStack=0;resizeParent=1;resizeParentMax=0;resizeLast=0;collapsible=1;marginBottom=0;" parent="1" vertex="1">
          <mxGeometry x="40" y="40" width="440" height="892" as="geometry">
            <mxRectangle x="40" y="40" width="90" height="26" as="alternateBounds" />
          </mxGeometry>
        </mxCell>
        <mxCell id="KfeeA3AMSUTKs20e_gZO-2" value="- transactionModel : TransactionModel" style="text;strokeColor=none;fillColor=none;align=left;verticalAlign=top;spacingLeft=4;spacingRight=4;overflow=hidden;rotatable=0;points=[[0,0.5],[1,0.5]];portConstraint=eastwest;fontStyle=4" parent="KfeeA3AMSUTKs20e_gZO-1" vertex="1">
          <mxGeometry y="26" width="440" height="26" as="geometry" />
        </mxCell>
        <mxCell id="kj_NCMUxmGCvKpjCwoq8-1" value="- categoryModel : CategoryModel" style="text;strokeColor=none;fillColor=none;align=left;verticalAlign=top;spacingLeft=4;spacingRight=4;overflow=hidden;rotatable=0;points=[[0,0.5],[1,0.5]];portConstraint=eastwest;fontStyle=4" parent="KfeeA3AMSUTKs20e_gZO-1" vertex="1">
          <mxGeometry y="52" width="440" height="26" as="geometry" />
        </mxCell>
        <mxCell id="kj_NCMUxmGCvKpjCwoq8-2" value="- budgetGrader : BudgetGraderÂ " style="text;strokeColor=none;fillColor=none;align=left;verticalAlign=top;spacingLeft=4;spacingRight=4;overflow=hidden;rotatable=0;points=[[0,0.5],[1,0.5]];portConstraint=eastwest;fontStyle=4" parent="KfeeA3AMSUTKs20e_gZO-1" vertex="1">
          <mxGeometry y="78" width="440" height="26" as="geometry" />
        </mxCell>
        <mxCell id="KfeeA3AMSUTKs20e_gZO-3" value="" style="line;strokeWidth=1;fillColor=none;align=left;verticalAlign=middle;spacingTop=-1;spacingLeft=3;spacingRight=3;rotatable=0;labelPosition=right;points=[];portConstraint=eastwest;" parent="KfeeA3AMSUTKs20e_gZO-1" vertex="1">
          <mxGeometry y="104" width="440" height="8" as="geometry" />
        </mxCell>
        <mxCell id="KfeeA3AMSUTKs20e_gZO-4" value="+ InitializeBackend(Context): void" style="text;strokeColor=none;fillColor=none;align=left;verticalAlign=top;spacingLeft=4;spacingRight=4;overflow=hidden;rotatable=0;points=[[0,0.5],[1,0.5]];portConstraint=eastwest;fontStyle=4" parent="KfeeA3AMSUTKs20e_gZO-1" vertex="1">
          <mxGeometry y="112" width="440" height="26" as="geometry" />
        </mxCell>
        <mxCell id="KfeeA3AMSUTKs20e_gZO-5" value="+ addObserver(ModelObserver) : void" style="text;strokeColor=none;fillColor=none;align=left;verticalAlign=top;spacingLeft=4;spacingRight=4;overflow=hidden;rotatable=0;points=[[0,0.5],[1,0.5]];portConstraint=eastwest;fontStyle=4" parent="KfeeA3AMSUTKs20e_gZO-1" vertex="1">
          <mxGeometry y="138" width="440" height="26" as="geometry" />
        </mxCell>
        <mxCell id="KfeeA3AMSUTKs20e_gZO-6" value="+ editCategoryInfo(oldCategory, String, String, boolean) : void&#xa;" style="text;strokeColor=none;fillColor=none;align=left;verticalAlign=top;spacingLeft=4;spacingRight=4;overflow=hidden;rotatable=0;points=[[0,0.5],[1,0.5]];portConstraint=eastwest;fontStyle=4" parent="KfeeA3AMSUTKs20e_gZO-1" vertex="1">
          <mxGeometry y="164" width="440" height="26" as="geometry" />
        </mxCell>
        <mxCell id="kj_NCMUxmGCvKpjCwoq8-3" value="+ editCategoryInfo(oldCategory, goal) : void&#xa;" style="text;strokeColor=none;fillColor=none;align=left;verticalAlign=top;spacingLeft=4;spacingRight=4;overflow=hidden;rotatable=0;points=[[0,0.5],[1,0.5]];portConstraint=eastwest;fontStyle=4" parent="KfeeA3AMSUTKs20e_gZO-1" vertex="1">
          <mxGeometry y="190" width="440" height="26" as="geometry" />
        </mxCell>
        <mxCell id="KfeeA3AMSUTKs20e_gZO-7" value="+ addNewCategory(String, String, boolean) : void&#xa;" style="text;strokeColor=none;fillColor=none;align=left;verticalAlign=top;spacingLeft=4;spacingRight=4;overflow=hidden;rotatable=0;points=[[0,0.5],[1,0.5]];portConstraint=eastwest;fontStyle=4" parent="KfeeA3AMSUTKs20e_gZO-1" vertex="1">
          <mxGeometry y="216" width="440" height="26" as="geometry" />
        </mxCell>
        <mxCell id="KfeeA3AMSUTKs20e_gZO-8" value="+ removeCategory(Category) : void&#xa;" style="text;strokeColor=none;fillColor=none;align=left;verticalAlign=top;spacingLeft=4;spacingRight=4;overflow=hidden;rotatable=0;points=[[0,0.5],[1,0.5]];portConstraint=eastwest;fontStyle=4" parent="KfeeA3AMSUTKs20e_gZO-1" vertex="1">
          <mxGeometry y="242" width="440" height="26" as="geometry" />
        </mxCell>
        <mxCell id="hTDjkcisJyXoNsfexby--2" value="+ getAllCategories() : ArrayList&lt;Category&gt;&#xa;" style="text;strokeColor=none;fillColor=none;align=left;verticalAlign=top;spacingLeft=4;spacingRight=4;overflow=hidden;rotatable=0;points=[[0,0.5],[1,0.5]];portConstraint=eastwest;fontStyle=4" parent="KfeeA3AMSUTKs20e_gZO-1" vertex="1">
          <mxGeometry y="268" width="440" height="26" as="geometry" />
        </mxCell>
        <mxCell id="KfeeA3AMSUTKs20e_gZO-9" value="+ addNewTransaction(float, String, LocalDate, Category) : void" style="text;strokeColor=none;fillColor=none;align=left;verticalAlign=top;spacingLeft=4;spacingRight=4;overflow=hidden;rotatable=0;points=[[0,0.5],[1,0.5]];portConstraint=eastwest;fontStyle=4" parent="KfeeA3AMSUTKs20e_gZO-1" vertex="1">
          <mxGeometry y="294" width="440" height="26" as="geometry" />
        </mxCell>
        <mxCell id="KfeeA3AMSUTKs20e_gZO-10" value="+ editTransaction(oldTransaction, float, String, LocalDate, Category) : void" style="text;strokeColor=none;fillColor=none;align=left;verticalAlign=top;spacingLeft=4;spacingRight=4;overflow=hidden;rotatable=0;points=[[0,0.5],[1,0.5]];portConstraint=eastwest;fontStyle=4" parent="KfeeA3AMSUTKs20e_gZO-1" vertex="1">
          <mxGeometry y="320" width="440" height="26" as="geometry" />
        </mxCell>
        <mxCell id="KfeeA3AMSUTKs20e_gZO-11" value="+ removeTransaction(FinancialTransaction) : void" style="text;strokeColor=none;fillColor=none;align=left;verticalAlign=top;spacingLeft=4;spacingRight=4;overflow=hidden;rotatable=0;points=[[0,0.5],[1,0.5]];portConstraint=eastwest;fontStyle=4" parent="KfeeA3AMSUTKs20e_gZO-1" vertex="1">
          <mxGeometry y="346" width="440" height="26" as="geometry" />
        </mxCell>
        <mxCell id="KfeeA3AMSUTKs20e_gZO-14" value="+ getTransactions(int, int) : ArrayList&lt;FinancialTransaction&gt;" style="text;strokeColor=none;fillColor=none;align=left;verticalAlign=top;spacingLeft=4;spacingRight=4;overflow=hidden;rotatable=0;points=[[0,0.5],[1,0.5]];portConstraint=eastwest;fontStyle=4" parent="KfeeA3AMSUTKs20e_gZO-1" vertex="1">
          <mxGeometry y="372" width="440" height="26" as="geometry" />
        </mxCell>
        <mxCell id="KfeeA3AMSUTKs20e_gZO-15" value="+ getTransactions(Category, int, int) : ArrayList&lt;FinancialTransaction&gt;" style="text;strokeColor=none;fillColor=none;align=left;verticalAlign=top;spacingLeft=4;spacingRight=4;overflow=hidden;rotatable=0;points=[[0,0.5],[1,0.5]];portConstraint=eastwest;fontStyle=4" parent="KfeeA3AMSUTKs20e_gZO-1" vertex="1">
          <mxGeometry y="398" width="440" height="26" as="geometry" />
        </mxCell>
        <mxCell id="KfeeA3AMSUTKs20e_gZO-19" value="+ getTransactionSum(Category, int, int) : float" style="text;strokeColor=none;fillColor=none;align=left;verticalAlign=top;spacingLeft=4;spacingRight=4;overflow=hidden;rotatable=0;points=[[0,0.5],[1,0.5]];portConstraint=eastwest;fontStyle=4" parent="KfeeA3AMSUTKs20e_gZO-1" vertex="1">
          <mxGeometry y="424" width="440" height="26" as="geometry" />
        </mxCell>
        <mxCell id="hTDjkcisJyXoNsfexby--3" value="+ getIncomeCategories() : ArrayList&lt;Category&gt;&#xa;" style="text;strokeColor=none;fillColor=none;align=left;verticalAlign=top;spacingLeft=4;spacingRight=4;overflow=hidden;rotatable=0;points=[[0,0.5],[1,0.5]];portConstraint=eastwest;fontStyle=4" parent="KfeeA3AMSUTKs20e_gZO-1" vertex="1">
          <mxGeometry y="450" width="440" height="26" as="geometry" />
        </mxCell>
        <mxCell id="hTDjkcisJyXoNsfexby--4" value="+ getExpenseCategories() : ArrayList&lt;Category&gt;&#xa;" style="text;strokeColor=none;fillColor=none;align=left;verticalAlign=top;spacingLeft=4;spacingRight=4;overflow=hidden;rotatable=0;points=[[0,0.5],[1,0.5]];portConstraint=eastwest;fontStyle=4" parent="KfeeA3AMSUTKs20e_gZO-1" vertex="1">
          <mxGeometry y="476" width="440" height="26" as="geometry" />
        </mxCell>
        <mxCell id="kj_NCMUxmGCvKpjCwoq8-4" value="+ sortCategoriesByAlphabet(ArrayList&lt;Category&gt;) : ArrayList&lt;Category&gt;" style="text;strokeColor=none;fillColor=none;align=left;verticalAlign=top;spacingLeft=4;spacingRight=4;overflow=hidden;rotatable=0;points=[[0,0.5],[1,0.5]];portConstraint=eastwest;fontStyle=4" parent="KfeeA3AMSUTKs20e_gZO-1" vertex="1">
          <mxGeometry y="502" width="440" height="26" as="geometry" />
        </mxCell>
        <mxCell id="kj_NCMUxmGCvKpjCwoq8-5" value="+ sortCategoriesByBudget(ArrayList&lt;Category&gt;) : ArrayList&lt;Category&gt;" style="text;strokeColor=none;fillColor=none;align=left;verticalAlign=top;spacingLeft=4;spacingRight=4;overflow=hidden;rotatable=0;points=[[0,0.5],[1,0.5]];portConstraint=eastwest;fontStyle=4" parent="KfeeA3AMSUTKs20e_gZO-1" vertex="1">
          <mxGeometry y="528" width="440" height="26" as="geometry" />
        </mxCell>
        <mxCell id="xtrkxpOBvdil9Jt7UQKR-2" value="+ getTotalIncome(int, int) : float" style="text;strokeColor=none;fillColor=none;align=left;verticalAlign=top;spacingLeft=4;spacingRight=4;overflow=hidden;rotatable=0;points=[[0,0.5],[1,0.5]];portConstraint=eastwest;fontStyle=4" parent="KfeeA3AMSUTKs20e_gZO-1" vertex="1">
          <mxGeometry y="554" width="440" height="26" as="geometry" />
        </mxCell>
        <mxCell id="xtrkxpOBvdil9Jt7UQKR-1" value="+ getTotalExpense(int, int) : float" style="text;strokeColor=none;fillColor=none;align=left;verticalAlign=top;spacingLeft=4;spacingRight=4;overflow=hidden;rotatable=0;points=[[0,0.5],[1,0.5]];portConstraint=eastwest;fontStyle=4" parent="KfeeA3AMSUTKs20e_gZO-1" vertex="1">
          <mxGeometry y="580" width="440" height="26" as="geometry" />
        </mxCell>
        <mxCell id="hTDjkcisJyXoNsfexby--5" value="+ getTransactionBalance(int, int) : float" style="text;strokeColor=none;fillColor=none;align=left;verticalAlign=top;spacingLeft=4;spacingRight=4;overflow=hidden;rotatable=0;points=[[0,0.5],[1,0.5]];portConstraint=eastwest;fontStyle=4" parent="KfeeA3AMSUTKs20e_gZO-1" vertex="1">
          <mxGeometry y="606" width="440" height="26" as="geometry" />
        </mxCell>
        <mxCell id="kj_NCMUxmGCvKpjCwoq8-6" value="+ removeEmptyCategories(ArrayList&lt;Category&gt;, int, int) : ArrayList&lt;Category&gt;" style="text;strokeColor=none;fillColor=none;align=left;verticalAlign=top;spacingLeft=4;spacingRight=4;overflow=hidden;rotatable=0;points=[[0,0.5],[1,0.5]];portConstraint=eastwest;fontStyle=4" parent="KfeeA3AMSUTKs20e_gZO-1" vertex="1">
          <mxGeometry y="632" width="440" height="26" as="geometry" />
        </mxCell>
        <mxCell id="kj_NCMUxmGCvKpjCwoq8-7" value="+ sortCategoryListBySum(ArrayList&lt;Category&gt;, int, int) : ArrayList&lt;Category&gt;" style="text;strokeColor=none;fillColor=none;align=left;verticalAlign=top;spacingLeft=4;spacingRight=4;overflow=hidden;rotatable=0;points=[[0,0.5],[1,0.5]];portConstraint=eastwest;fontStyle=4" parent="KfeeA3AMSUTKs20e_gZO-1" vertex="1">
          <mxGeometry y="658" width="440" height="26" as="geometry" />
        </mxCell>
        <mxCell id="kj_NCMUxmGCvKpjCwoq8-8" value="+ sortCategoryListByPopularity(ArrayList&lt;Category&gt;) : ArrayList&lt;Category&gt;" style="text;strokeColor=none;fillColor=none;align=left;verticalAlign=top;spacingLeft=4;spacingRight=4;overflow=hidden;rotatable=0;points=[[0,0.5],[1,0.5]];portConstraint=eastwest;fontStyle=4" parent="KfeeA3AMSUTKs20e_gZO-1" vertex="1">
          <mxGeometry y="684" width="440" height="26" as="geometry" />
        </mxCell>
        <mxCell id="kj_NCMUxmGCvKpjCwoq8-9" value="+ getBudgetCategoriesByMonth(int, int) : ArrayList&lt;Category&gt;" style="text;strokeColor=none;fillColor=none;align=left;verticalAlign=top;spacingLeft=4;spacingRight=4;overflow=hidden;rotatable=0;points=[[0,0.5],[1,0.5]];portConstraint=eastwest;fontStyle=4" parent="KfeeA3AMSUTKs20e_gZO-1" vertex="1">
          <mxGeometry y="710" width="440" height="26" as="geometry" />
        </mxCell>
        <mxCell id="kj_NCMUxmGCvKpjCwoq8-10" value="+ gradeCategory(Category) : float" style="text;strokeColor=none;fillColor=none;align=left;verticalAlign=top;spacingLeft=4;spacingRight=4;overflow=hidden;rotatable=0;points=[[0,0.5],[1,0.5]];portConstraint=eastwest;fontStyle=4" parent="KfeeA3AMSUTKs20e_gZO-1" vertex="1">
          <mxGeometry y="736" width="440" height="26" as="geometry" />
        </mxCell>
        <mxCell id="kj_NCMUxmGCvKpjCwoq8-11" value="+ getRoundedBudgetOutcome(Category) : float" style="text;strokeColor=none;fillColor=none;align=left;verticalAlign=top;spacingLeft=4;spacingRight=4;overflow=hidden;rotatable=0;points=[[0,0.5],[1,0.5]];portConstraint=eastwest;fontStyle=4" parent="KfeeA3AMSUTKs20e_gZO-1" vertex="1">
          <mxGeometry y="762" width="440" height="26" as="geometry" />
        </mxCell>
        <mxCell id="kj_NCMUxmGCvKpjCwoq8-12" value="+ getAverageGradeForMonth(int, int) : float" style="text;strokeColor=none;fillColor=none;align=left;verticalAlign=top;spacingLeft=4;spacingRight=4;overflow=hidden;rotatable=0;points=[[0,0.5],[1,0.5]];portConstraint=eastwest;fontStyle=4" parent="KfeeA3AMSUTKs20e_gZO-1" vertex="1">
          <mxGeometry y="788" width="440" height="26" as="geometry" />
        </mxCell>
        <mxCell id="kj_NCMUxmGCvKpjCwoq8-14" value="+ getAllBudgetCategories() : ArrayList&lt;Category&gt;" style="text;strokeColor=none;fillColor=none;align=left;verticalAlign=top;spacingLeft=4;spacingRight=4;overflow=hidden;rotatable=0;points=[[0,0.5],[1,0.5]];portConstraint=eastwest;fontStyle=4" parent="KfeeA3AMSUTKs20e_gZO-1" vertex="1">
          <mxGeometry y="814" width="440" height="26" as="geometry" />
        </mxCell>
        <mxCell id="kj_NCMUxmGCvKpjCwoq8-15" value="+ getCurrentStreak() : int" style="text;strokeColor=none;fillColor=none;align=left;verticalAlign=top;spacingLeft=4;spacingRight=4;overflow=hidden;rotatable=0;points=[[0,0.5],[1,0.5]];portConstraint=eastwest;fontStyle=4" parent="KfeeA3AMSUTKs20e_gZO-1" vertex="1">
          <mxGeometry y="840" width="440" height="26" as="geometry" />
        </mxCell>
        <mxCell id="kj_NCMUxmGCvKpjCwoq8-16" value="+ getRecordStreak() : int" style="text;strokeColor=none;fillColor=none;align=left;verticalAlign=top;spacingLeft=4;spacingRight=4;overflow=hidden;rotatable=0;points=[[0,0.5],[1,0.5]];portConstraint=eastwest;fontStyle=4" parent="KfeeA3AMSUTKs20e_gZO-1" vertex="1">
          <mxGeometry y="866" width="440" height="26" as="geometry" />
        </mxCell>
      </root>
    </mxGraphModel>
  </diagram>
</mxfile>
